{
	"asset": {
		"generator": "Unity 2017.4.17f1",
		"extras": {
			"exporterVersion" : "2.2.1"
		},
		"version": "2.0"
	},
	"accessors": [
		{
			"bufferView": 3,
			"byteOffset": 0,
			"componentType": 5126,
			"count": 24,
			"max": [ 0.5, 0.5, 0.5 ],
			"min": [ -0.5, -0.5, -0.5 ],
			"type": "VEC3"
		},
		{
			"bufferView": 3,
			"byteOffset": 288,
			"componentType": 5126,
			"count": 24,
			"max": [ 1, 1, 1 ],
			"min": [ -1, -1, -1 ],
			"type": "VEC3"
		},
		{
			"bufferView": 2,
			"byteOffset": 0,
			"componentType": 5126,
			"count": 24,
			"max": [ 1, 1 ],
			"min": [ 0, 0 ],
			"type": "VEC2"
		},
		{
			"bufferView": 2,
			"byteOffset": 192,
			"componentType": 5126,
			"count": 24,
			"max": [ 0.9966581, 0.6528358 ],
			"min": [ 0.004055766, 0.004055766 ],
			"type": "VEC2"
		},
		{
			"bufferView": 4,
			"byteOffset": 0,
			"componentType": 5126,
			"count": 24,
			"max": [ 0, 0, 1, 1 ],
			"min": [ -1, 0, -1, 1 ],
			"type": "VEC4"
		},
		{
			"bufferView": 0,
			"byteOffset": 0,
			"componentType": 5123,
			"count": 36,
			"max": [ 23 ],
			"min": [ 0 ],
			"type": "SCALAR"
		},
		{
			"bufferView": 1,
			"byteOffset": 0,
			"componentType": 5126,
			"count": 150,
			"max": [ 4.966667 ],
			"min": [ 0 ],
			"type": "SCALAR"
		},
		{
			"bufferView": 5,
			"byteOffset": 0,
			"componentType": 5126,
			"count": 150,
			"max": [ 0, 0, 0 ],
			"min": [ 0, -3.43, 0 ],
			"type": "VEC3"
		},
		{
			"bufferView": 6,
			"byteOffset": 0,
			"componentType": 5126,
			"count": 150,
			"max": [ 0, 0, 0, -1 ],
			"min": [ 0, 0, 0, -1 ],
			"type": "VEC4"
		},
		{
			"bufferView": 5,
			"byteOffset": 1800,
			"componentType": 5126,
			"count": 150,
			"max": [ 1, 1, 1 ],
			"min": [ 1, 1, 1 ],
			"type": "VEC3"
		},
		{
			"bufferView": 1,
			"byteOffset": 600,
			"componentType": 5126,
			"count": 150,
			"max": [ 4.983222 ],
			"min": [ 0 ],
			"type": "SCALAR"
		},
		{
			"bufferView": 5,
			"byteOffset": 3600,
			"componentType": 5126,
			"count": 150,
			"max": [ 0, 0, 0 ],
			"min": [ 0, 0, 0 ],
			"type": "VEC3"
		},
		{
			"bufferView": 6,
			"byteOffset": 2400,
			"componentType": 5126,
			"count": 150,
			"max": [ 0, 0.9998369, 0, 0.9999413 ],
			"min": [ 0, 0, 0, -1 ],
			"type": "VEC4"
		},
		{
			"bufferView": 5,
			"byteOffset": 5400,
			"componentType": 5126,
			"count": 150,
			"max": [ 1, 1, 1 ],
			"min": [ 1, 1, 1 ],
			"type": "VEC3"
		}
	],
	"animations": [
		{
			"name": "box",
			"channels": [
				{
					"sampler": 0,
					"target": {
						"node": 1,
						"path": "translation"
					}
				},
				{
					"sampler": 1,
					"target": {
						"node": 1,
						"path": "rotation"
					}
				},
				{
					"sampler": 2,
					"target": {
						"node": 1,
						"path": "scale"
					}
				}
			],
			"samplers": [
				{
					"input": 6,
					"interpolation": "LINEAR",
					"output": 7
				},
				{
					"input": 6,
					"interpolation": "LINEAR",
					"output": 8
				},
				{
					"input": 6,
					"interpolation": "LINEAR",
					"output": 9
				}
			]
		},
		{
			"name": "rot",
			"channels": [
				{
					"sampler": 0,
					"target": {
						"node": 1,
						"path": "translation"
					}
				},
				{
					"sampler": 1,
					"target": {
						"node": 1,
						"path": "rotation"
					}
				},
				{
					"sampler": 2,
					"target": {
						"node": 1,
						"path": "scale"
					}
				}
			],
			"samplers": [
				{
					"input": 10,
					"interpolation": "LINEAR",
					"output": 11
				},
				{
					"input": 10,
					"interpolation": "LINEAR",
					"output": 12
				},
				{
					"input": 10,
					"interpolation": "LINEAR",
					"output": 13
				}
			]
		}
	],
	"buffers": [
		{
			"byteLength": 14616,
			"uri": "Cube.bin"
		}
	],
	"bufferViews": [
		{
			"buffer": 0,
			"byteLength": 72,
			"target": 34963,
			"byteOffset": 2544
		},
		{
			"buffer": 0,
			"byteLength": 1200,
			"byteOffset": 0
		},
		{
			"buffer": 0,
			"byteLength": 384,
			"target": 34962,
			"byteStride": 8,
			"byteOffset": 1200
		},
		{
			"buffer": 0,
			"byteLength": 576,
			"target": 34962,
			"byteStride": 12,
			"byteOffset": 1584
		},
		{
			"buffer": 0,
			"byteLength": 384,
			"target": 34962,
			"byteStride": 16,
			"byteOffset": 2160
		},
		{
			"buffer": 0,
			"byteLength": 7200,
			"byteStride": 12,
			"byteOffset": 2616
		},
		{
			"buffer": 0,
			"byteLength": 4800,
			"byteStride": 16,
			"byteOffset": 9816
		}
	],
	"materials": [
		{
			"pbrMetallicRoughness": {
				"baseColorFactor": [1, 1, 1, 1],
				"metallicFactor": 0,
				"roughnessFactor": 0.5
			},
			"emissiveFactor": [0, 0, 0],
			"doubleSided": false,
			"name": "Default-Material"
		}
	],
	"meshes": [
		{
			"name": "mesh_Cube_748Cube",
			"primitives": [
				{
					"attributes": {
						"POSITION": 0,
						"NORMAL": 1,
						"TEXCOORD_0": 2,
						"TEXCOORD_1": 3,
						"TANGENT": 4
					},
					"indices": 5,
					"material": 0,
					"mode": 4
				}
			]
		}
	],
	"nodes": [
		{
			"name": "Cube",
			"children": [
				1
			]
		},
		{
			"name": "node_Cube_13116",
			"mesh": 0,
			"matrix": [1, 0, 0, 0, 0, 1, 0, 0, 0, 0, 1, 0, 0, 0, 0, 1]
		}
	],
	"scenes": [
		{
			"name":"defaultScene",
			"nodes": [
				0
			]
		}
	],
	"scene": 0
}